<?xml version="1.0" encoding="UTF-8" standalone="no"?><!DOCTYPE svg PUBLIC "-//W3C//DTD SVG 1.1//EN" "http://www.w3.org/Graphics/SVG/1.1/DTD/svg11.dtd"><svg width="100%" height="100%" viewBox="0 0 268 98" version="1.1" xmlns="http://www.w3.org/2000/svg" xmlns:xlink="http://www.w3.org/1999/xlink" xml:space="preserve" xmlns:serif="http://www.serif.com/" style="fill-rule:evenodd;clip-rule:evenodd;stroke-linejoin:round;stroke-miterlimit:2;"><g><g><path d="M29.425,68.654l-4.398,8.432l-4.438,-8.432l-5.003,0l2.502,4.801l-1.897,3.631l-4.438,-8.432l-5.003,0l9.118,17.389l0.646,0l4.075,-7.827l4.115,7.827l0.686,0l9.038,-17.389l-5.003,0Z" style="fill-rule:nonzero;"/><path d="M50.042,68.654l-0.403,1.654c-1.614,-1.372 -3.712,-2.179 -5.971,-2.179c-5.125,0 -9.24,4.075 -9.24,9.199c0,5.084 4.115,9.199 9.24,9.199c2.259,0 4.357,-0.807 5.971,-2.178l0,1.694l4.277,0l0,-17.389l-3.874,0Zm-2.541,12.023c-0.848,0.888 -1.977,1.372 -3.188,1.372c-1.21,0 -2.34,-0.484 -3.228,-1.372c-0.847,-0.928 -1.331,-2.098 -1.331,-3.349c0,-1.251 0.484,-2.461 1.331,-3.349c0.888,-0.887 2.018,-1.371 3.228,-1.371c1.211,0 2.34,0.484 3.188,1.371c0.887,0.888 1.331,2.098 1.331,3.349c0,1.251 -0.444,2.421 -1.331,3.349Z" style="fill-rule:nonzero;"/><path d="M65.818,68.654l0,-6.456l-5.124,0l0,6.456l-3.631,0l0,4.72l3.631,0l0,12.669l5.124,0l0,-12.669l4.035,0l0,-4.72l-4.035,0Z" style="fill-rule:nonzero;"/><path d="M86.193,68.654l-0.403,1.654c-1.614,-1.372 -3.712,-2.179 -5.971,-2.179c-5.125,0 -9.24,4.075 -9.24,9.199c0,5.084 4.115,9.199 9.24,9.199c2.259,0 4.357,-0.807 5.971,-2.178l0,1.694l4.277,0l0,-17.389l-3.874,0Zm-2.542,12.023c-0.847,0.888 -1.977,1.372 -3.187,1.372c-1.21,0 -2.34,-0.484 -3.228,-1.372c-0.847,-0.928 -1.331,-2.098 -1.331,-3.349c0,-1.251 0.484,-2.461 1.331,-3.349c0.888,-0.887 2.018,-1.371 3.228,-1.371c1.21,0 2.34,0.484 3.187,1.371c0.888,0.888 1.332,2.098 1.332,3.349c0,1.251 -0.444,2.421 -1.332,3.349Z" style="fill-rule:nonzero;"/><path d="M98.015,68.654l-3.914,0l0,17.389l5.044,0l0,-9.602c0.524,-2.784 3.51,-4.56 6.455,-3.268l1.977,-4.479c-0.928,-0.323 -1.936,-0.484 -2.945,-0.484c-2.3,0 -4.6,0.726 -5.891,2.421l-0.726,-1.977Z" style="fill-rule:nonzero;"/><path d="M110.603,63.409l0,-5.649l5.205,0l0,5.649l-5.205,0Zm0,22.634l0,-17.389l5.205,0l0,17.389l-5.205,0Z" style="fill-rule:nonzero;"/></g><path d="M37.887,16.062c0,0 -6.204,-4.053 -3.65,3.649c2.554,7.703 7.623,19.618 12.774,23.722c5.15,4.104 9.178,6.913 10.948,0c1.771,-6.913 2.486,-5.497 5.475,0c2.989,5.498 9.157,24.086 16.423,10.949c7.265,-13.138 14.556,-35.838 16.423,-45.619c0.36,-1.89 -1.654,-5.917 -5.475,1.824c-3.82,7.742 -13.399,29.422 -14.598,32.846c-1.199,3.425 -3.077,8.508 -5.474,0c-2.397,-8.508 -11.77,-19.354 -12.774,-14.598c-1.003,4.756 -1.064,14.895 -3.649,10.949c-2.585,-3.947 -13.03,-21.649 -16.423,-23.722Z" style="fill:#de6951;"/></g><g><path d="M152.916,26.827c0,3.762 2.862,6.39 6.39,6.39c2.61,0 4.86,-1.296 5.814,-3.744l-2.466,0c-0.666,1.332 -1.854,1.962 -3.348,1.962c-2.484,0 -4.284,-1.782 -4.284,-4.608c0,-2.826 1.8,-4.59 4.284,-4.59c1.494,0 2.682,0.63 3.348,1.962l2.466,0c-0.954,-2.448 -3.204,-3.762 -5.814,-3.762c-3.528,0 -6.39,2.646 -6.39,6.39Z" style="fill:#8d8d8d;fill-rule:nonzero;"/><path d="M176.964,28.141c0,-3.114 -2.232,-5.112 -5.058,-5.112c-2.826,0 -5.058,1.998 -5.058,5.112c0,3.114 2.142,5.13 4.968,5.13c2.844,0 5.148,-2.016 5.148,-5.13Zm-8.028,0c0,-2.25 1.386,-3.33 2.934,-3.33c1.53,0 2.988,1.08 2.988,3.33c0,2.25 -1.512,3.348 -3.042,3.348c-1.548,0 -2.88,-1.098 -2.88,-3.348Z" style="fill:#8d8d8d;fill-rule:nonzero;"/><path d="M187.98,23.191l-2.052,0l0,5.526c0,1.818 -0.99,2.754 -2.502,2.754c-1.494,0 -2.484,-0.936 -2.484,-2.754l0,-5.526l-2.034,0l0,5.832c0,2.772 1.764,4.23 4.086,4.23c1.17,0 2.286,-0.486 2.934,-1.332l0,1.188l2.052,0l0,-9.918Z" style="fill:#8d8d8d;fill-rule:nonzero;"/><path d="M197.718,33.109l2.034,0l0,-5.85c0,-2.772 -1.746,-4.23 -4.068,-4.23c-1.188,0 -2.286,0.486 -2.952,1.296l0,-1.134l-2.052,0l0,9.918l2.052,0l0,-5.544c0,-1.818 0.99,-2.754 2.502,-2.754c1.494,0 2.484,0.936 2.484,2.754l0,5.544Z" style="fill:#8d8d8d;fill-rule:nonzero;"/><path d="M209.76,30.337c-0.108,-3.582 -5.706,-2.466 -5.706,-4.464c0,-0.666 0.576,-1.116 1.674,-1.116c1.116,0 1.782,0.594 1.854,1.458l2.052,0c-0.108,-1.98 -1.584,-3.186 -3.834,-3.186c-2.34,0 -3.816,1.278 -3.816,2.862c0,3.636 5.76,2.52 5.76,4.464c0,0.684 -0.63,1.188 -1.818,1.188c-1.134,0 -1.908,-0.666 -1.98,-1.476l-2.124,0c0.09,1.8 1.764,3.204 4.14,3.204c2.34,0 3.798,-1.26 3.798,-2.934Z" style="fill:#8d8d8d;fill-rule:nonzero;"/><path d="M216.15,24.757c1.53,0 2.736,0.972 2.772,2.502l-5.49,0c0.216,-1.566 1.332,-2.502 2.718,-2.502Zm4.644,5.4l-2.214,0c-0.378,0.774 -1.08,1.386 -2.34,1.386c-1.512,0 -2.682,-0.99 -2.826,-2.628l7.578,0c0.054,-0.342 0.072,-0.666 0.072,-1.008c0,-2.916 -1.998,-4.878 -4.824,-4.878c-2.934,0 -4.95,1.998 -4.95,5.112c0,3.114 2.106,5.13 4.95,5.13c2.43,0 3.996,-1.386 4.554,-3.114Z" style="fill:#8d8d8d;fill-rule:nonzero;"/><rect x="223.08" y="19.789" width="2.052" height="13.32" style="fill:#8d8d8d;fill-rule:nonzero;"/><rect x="227.832" y="19.789" width="2.052" height="13.32" style="fill:#8d8d8d;fill-rule:nonzero;"/><path d="M232.584,33.109l2.052,0l0,-9.918l-2.052,0l0,9.918Zm1.044,-11.232c0.72,0 1.296,-0.576 1.296,-1.314c0,-0.738 -0.576,-1.314 -1.296,-1.314c-0.738,0 -1.314,0.576 -1.314,1.314c0,0.738 0.576,1.314 1.314,1.314Z" style="fill:#8d8d8d;fill-rule:nonzero;"/><path d="M244.374,33.109l2.034,0l0,-5.85c0,-2.772 -1.746,-4.23 -4.068,-4.23c-1.188,0 -2.286,0.486 -2.952,1.296l0,-1.134l-2.052,0l0,9.918l2.052,0l0,-5.544c0,-1.818 0.99,-2.754 2.502,-2.754c1.494,0 2.484,0.936 2.484,2.754l0,5.544Z" style="fill:#8d8d8d;fill-rule:nonzero;"/><path d="M248.334,28.105c0,3.06 2.07,5.166 4.68,5.166c1.62,0 2.808,-0.81 3.438,-1.656l0,1.656c0,1.98 -1.188,2.952 -2.772,2.952c-1.422,0 -2.52,-0.702 -2.826,-1.728l-2.034,0c0.252,2.196 2.214,3.51 4.86,3.51c3.096,0 4.842,-2.034 4.842,-4.734l0,-10.08l-2.07,0l0,1.44c-0.612,-0.846 -1.818,-1.602 -3.438,-1.602c-2.61,0 -4.68,2.016 -4.68,5.076Zm8.118,0.036c0,2.142 -1.458,3.348 -3.006,3.348c-1.53,0 -3.006,-1.242 -3.006,-3.384c0,-2.142 1.476,-3.294 3.006,-3.294c1.548,0 3.006,1.206 3.006,3.33Z" style="fill:#8d8d8d;fill-rule:nonzero;"/><path d="M161.556,43.639c0.126,-1.71 -1.044,-3.078 -3.222,-3.078c-2.142,0 -3.474,1.242 -3.474,2.88c0,0.882 0.252,1.548 0.954,2.394c-1.98,0.81 -2.934,2.232 -2.934,3.924c0,2.34 1.8,3.834 4.5,3.834c1.746,0 3.132,-0.576 4.338,-1.782l1.548,1.548l2.682,0l-3.042,-3.024c0.144,-0.234 0.306,-0.486 0.45,-0.738l1.62,-2.772l-2.214,0l-1.278,2.106l-3.312,-3.294c-0.882,-0.954 -1.26,-1.512 -1.26,-2.196c0,-0.666 0.522,-1.206 1.332,-1.206c0.774,0 1.296,0.486 1.26,1.404l2.052,0Zm-4.176,8.208c-1.476,0 -2.448,-0.954 -2.448,-2.16c0,-1.116 0.666,-1.98 2.124,-2.556l3.312,3.33c-0.864,0.918 -1.818,1.386 -2.988,1.386Z" style="fill:#8d8d8d;fill-rule:nonzero;"/><path d="M180.42,49.813c0,-4.572 -6.624,-2.808 -6.624,-5.634c0,-1.206 0.918,-1.782 2.106,-1.746c1.296,0.036 2.034,0.81 2.106,1.656l2.268,0c-0.18,-2.142 -1.872,-3.402 -4.266,-3.402c-2.556,0 -4.302,1.368 -4.302,3.564c0,4.608 6.642,2.646 6.642,5.67c0,1.062 -0.81,1.836 -2.25,1.836c-1.422,0 -2.142,-0.828 -2.232,-1.854l-2.196,0c0,2.214 1.926,3.582 4.428,3.582c2.79,0 4.32,-1.8 4.32,-3.672Z" style="fill:#8d8d8d;fill-rule:nonzero;"/><path d="M191.832,43.441l-2.052,0l0,5.526c0,1.818 -0.99,2.754 -2.502,2.754c-1.494,0 -2.484,-0.936 -2.484,-2.754l0,-5.526l-2.034,0l0,5.832c0,2.772 1.764,4.23 4.086,4.23c1.17,0 2.286,-0.486 2.934,-1.332l0,1.188l2.052,0l0,-9.918Z" style="fill:#8d8d8d;fill-rule:nonzero;"/><path d="M196.584,44.899l0,-1.458l-2.052,0l0,14.634l2.052,0l0,-6.156c0.648,0.774 1.818,1.602 3.456,1.602c2.61,0 4.662,-2.106 4.662,-5.166c0,-3.06 -2.052,-5.076 -4.662,-5.076c-1.62,0 -2.826,0.792 -3.456,1.62Zm6.03,3.456c0,2.142 -1.476,3.384 -3.024,3.384c-1.53,0 -3.006,-1.206 -3.006,-3.348c0,-2.124 1.476,-3.33 3.006,-3.33c1.548,0 3.024,1.152 3.024,3.294Z" style="fill:#8d8d8d;fill-rule:nonzero;"/><path d="M208.788,44.899l0,-1.458l-2.052,0l0,14.634l2.052,0l0,-6.156c0.648,0.774 1.818,1.602 3.456,1.602c2.61,0 4.662,-2.106 4.662,-5.166c0,-3.06 -2.052,-5.076 -4.662,-5.076c-1.62,0 -2.826,0.792 -3.456,1.62Zm6.03,3.456c0,2.142 -1.476,3.384 -3.024,3.384c-1.53,0 -3.006,-1.206 -3.006,-3.348c0,-2.124 1.476,-3.33 3.006,-3.33c1.548,0 3.024,1.152 3.024,3.294Z" style="fill:#8d8d8d;fill-rule:nonzero;"/><path d="M228.39,48.391c0,-3.114 -2.232,-5.112 -5.058,-5.112c-2.826,0 -5.058,1.998 -5.058,5.112c0,3.114 2.142,5.13 4.968,5.13c2.844,0 5.148,-2.016 5.148,-5.13Zm-8.028,0c0,-2.25 1.386,-3.33 2.934,-3.33c1.53,0 2.988,1.08 2.988,3.33c0,2.25 -1.512,3.348 -3.042,3.348c-1.548,0 -2.88,-1.098 -2.88,-3.348Z" style="fill:#8d8d8d;fill-rule:nonzero;"/><path d="M232.476,48.139c0,-2.106 0.936,-2.736 2.448,-2.736l0.522,0l0,-2.124c-1.404,0 -2.394,0.612 -2.97,1.602l0,-1.44l-2.052,0l0,9.918l2.052,0l0,-5.22Z" style="fill:#8d8d8d;fill-rule:nonzero;"/><path d="M237.66,50.605c0,2.016 1.098,2.754 2.862,2.754l1.62,0l0,-1.71l-1.26,0c-0.864,0 -1.152,-0.306 -1.152,-1.044l0,-5.49l2.412,0l0,-1.674l-2.412,0l0,-2.466l-2.07,0l0,2.466l-1.17,0l0,1.674l1.17,0l0,5.49Z" style="fill:#8d8d8d;fill-rule:nonzero;"/><path d="M162.042,70.063c0,-4.572 -6.624,-2.808 -6.624,-5.634c0,-1.206 0.918,-1.782 2.106,-1.746c1.296,0.036 2.034,0.81 2.106,1.656l2.268,0c-0.18,-2.142 -1.872,-3.402 -4.266,-3.402c-2.556,0 -4.302,1.368 -4.302,3.564c0,4.608 6.642,2.646 6.642,5.67c0,1.062 -0.81,1.836 -2.25,1.836c-1.422,0 -2.142,-0.828 -2.232,-1.854l-2.196,0c0,2.214 1.926,3.582 4.428,3.582c2.79,0 4.32,-1.8 4.32,-3.672Z" style="fill:#8d8d8d;fill-rule:nonzero;"/><path d="M168.648,65.257c1.53,0 2.736,0.972 2.772,2.502l-5.49,0c0.216,-1.566 1.332,-2.502 2.718,-2.502Zm4.644,5.4l-2.214,0c-0.378,0.774 -1.08,1.386 -2.34,1.386c-1.512,0 -2.682,-0.99 -2.826,-2.628l7.578,0c0.054,-0.342 0.072,-0.666 0.072,-1.008c0,-2.916 -1.998,-4.878 -4.824,-4.878c-2.934,0 -4.95,1.998 -4.95,5.112c0,3.114 2.106,5.13 4.95,5.13c2.43,0 3.996,-1.386 4.554,-3.114Z" style="fill:#8d8d8d;fill-rule:nonzero;"/><path d="M177.63,68.389c0,-2.106 0.936,-2.736 2.448,-2.736l0.522,0l0,-2.124c-1.404,0 -2.394,0.612 -2.97,1.602l0,-1.44l-2.052,0l0,9.918l2.052,0l0,-5.22Z" style="fill:#8d8d8d;fill-rule:nonzero;"/><path d="M181.32,63.691l3.762,9.918l2.448,0l3.78,-9.918l-2.178,0l-2.808,8.082l-2.808,-8.082l-2.196,0Z" style="fill:#8d8d8d;fill-rule:nonzero;"/><path d="M192.858,73.609l2.052,0l0,-9.918l-2.052,0l0,9.918Zm1.044,-11.232c0.72,0 1.296,-0.576 1.296,-1.314c0,-0.738 -0.576,-1.314 -1.296,-1.314c-0.738,0 -1.314,0.576 -1.314,1.314c0,0.738 0.576,1.314 1.314,1.314Z" style="fill:#8d8d8d;fill-rule:nonzero;"/><path d="M196.926,68.641c0,3.114 2.016,5.13 4.86,5.13c2.43,0 4.014,-1.35 4.572,-3.294l-2.214,0c-0.378,1.026 -1.134,1.566 -2.358,1.566c-1.656,0 -2.754,-1.224 -2.754,-3.402c0,-2.16 1.098,-3.384 2.754,-3.384c1.224,0 2.016,0.612 2.358,1.566l2.214,0c-0.558,-2.088 -2.142,-3.294 -4.572,-3.294c-2.844,0 -4.86,2.016 -4.86,5.112Z" style="fill:#8d8d8d;fill-rule:nonzero;"/><path d="M212.586,65.257c1.53,0 2.736,0.972 2.772,2.502l-5.49,0c0.216,-1.566 1.332,-2.502 2.718,-2.502Zm4.644,5.4l-2.214,0c-0.378,0.774 -1.08,1.386 -2.34,1.386c-1.512,0 -2.682,-0.99 -2.826,-2.628l7.578,0c0.054,-0.342 0.072,-0.666 0.072,-1.008c0,-2.916 -1.998,-4.878 -4.824,-4.878c-2.934,0 -4.95,1.998 -4.95,5.112c0,3.114 2.106,5.13 4.95,5.13c2.43,0 3.996,-1.386 4.554,-3.114Z" style="fill:#8d8d8d;fill-rule:nonzero;"/><path d="M226.914,70.837c-0.108,-3.582 -5.706,-2.466 -5.706,-4.464c0,-0.666 0.576,-1.116 1.674,-1.116c1.116,0 1.782,0.594 1.854,1.458l2.052,0c-0.108,-1.98 -1.584,-3.186 -3.834,-3.186c-2.34,0 -3.816,1.278 -3.816,2.862c0,3.636 5.76,2.52 5.76,4.464c0,0.684 -0.63,1.188 -1.818,1.188c-1.134,0 -1.908,-0.666 -1.98,-1.476l-2.124,0c0.09,1.8 1.764,3.204 4.14,3.204c2.34,0 3.798,-1.26 3.798,-2.934Z" style="fill:#8d8d8d;fill-rule:nonzero;"/></g></svg>